<?xml version="1.0" standalone="no"?>
<!DOCTYPE svg PUBLIC "-//W3C//DTD SVG 20010904//EN"
 "http://www.w3.org/TR/2001/REC-SVG-20010904/DTD/svg10.dtd">
<svg version="1.0" xmlns="http://www.w3.org/2000/svg"
 width="547.000000pt" height="444.000000pt" viewBox="0 0 547.000000 444.000000"
 preserveAspectRatio="xMidYMid meet">

<g transform="translate(0.000000,444.000000) scale(0.100000,-0.100000)"
fill="#000000" stroke="none">
<path d="M2191 4044 c-39 -33 -42 -79 -7 -121 36 -43 46 -68 46 -113 0 -53
-17 -85 -86 -162 -74 -82 -99 -123 -120 -193 -30 -103 5 -236 82 -314 40 -40
47 -43 81 -38 84 14 107 92 48 166 -70 88 -58 157 46 268 113 119 148 225 115
353 -40 155 -127 220 -205 154z"/>
<path d="M2769 4041 c-38 -38 -37 -69 3 -139 57 -100 42 -163 -67 -281 -23
-26 -55 -68 -71 -96 -27 -46 -29 -58 -29 -150 0 -94 2 -105 33 -168 40 -81 78
-111 132 -103 42 6 80 46 80 84 0 15 -15 49 -34 75 -66 93 -58 148 40 264 96
114 118 165 117 283 0 74 -5 108 -22 152 -41 105 -121 140 -182 79z"/>
<path d="M1324 2803 c-12 -2 -40 -20 -63 -39 -68 -59 -75 -98 -68 -414 6 -290
23 -464 61 -610 79 -312 250 -567 479 -717 37 -24 67 -45 67 -46 0 -1 -154 -2
-343 -2 -312 0 -346 -2 -384 -19 -90 -40 -119 -147 -68 -251 65 -133 303 -289
525 -343 99 -24 1727 -31 1874 -7 220 35 381 111 517 245 70 69 90 95 104 138
19 60 15 109 -16 158 -42 70 -36 68 -429 74 l-355 5 45 27 c103 62 259 221
322 328 l21 35 156 0 c176 0 245 15 376 83 100 52 218 173 267 272 122 250 79
521 -111 711 -111 111 -223 161 -388 175 -75 6 -83 9 -83 28 -1 65 -69 146
-138 166 -36 10 -2318 13 -2368 3z m1984 -151 l354 -4 15 -36 c27 -65 -4 -586
-47 -783 -94 -430 -337 -711 -704 -812 -76 -21 -102 -22 -396 -22 -340 0 -391
6 -540 62 -213 79 -425 290 -520 519 -83 199 -110 376 -117 750 -5 288 -5 292
16 313 l21 21 783 -1 c430 -1 941 -4 1135 -7z m632 -203 c141 -22 278 -120
338 -242 133 -271 -25 -594 -329 -673 -60 -16 -233 -23 -245 -11 -4 3 5 41 20
84 60 186 90 358 106 623 5 91 10 180 10 198 0 37 2 37 100 21z m-86 -1629
c44 -16 33 -48 -38 -116 -81 -78 -213 -147 -343 -180 l-96 -24 -876 0 c-943 0
-939 0 -1071 53 -89 36 -165 85 -231 147 -60 57 -74 91 -47 118 15 15 2662 18
2702 2z"/>
</g>
</svg>
