<?xml version="1.0" standalone="no"?>
<!DOCTYPE svg PUBLIC "-//W3C//DTD SVG 20010904//EN"
 "http://www.w3.org/TR/2001/REC-SVG-20010904/DTD/svg10.dtd">
<svg version="1.0" xmlns="http://www.w3.org/2000/svg"
 width="199.000000pt" height="166.000000pt" viewBox="0 0 199.000000 166.000000"
 preserveAspectRatio="xMidYMid meet">

<g transform="translate(0.000000,166.000000) scale(0.100000,-0.100000)"
fill="#000000" stroke="none">
<path d="M0 830 l0 -830 995 0 995 0 0 830 0 830 -995 0 -995 0 0 -830z m724
514 c69 -18 180 -72 224 -109 l32 -27 0 -429 c0 -236 -3 -429 -6 -429 -3 0
-24 11 -47 24 -107 63 -315 104 -459 91 l-78 -6 2 448 3 448 40 7 c58 9 220
-1 289 -18z m887 11 c5 -4 9 -184 9 -451 l0 -445 -87 7 c-157 11 -353 -32
-465 -103 l-38 -23 0 438 0 439 43 30 c81 58 175 96 282 113 60 9 238 6 256
-5z m-1281 -514 c0 -339 2 -412 14 -424 11 -11 41 -13 143 -9 145 5 247 -10
349 -52 l59 -25 -312 -1 -313 0 0 460 0 460 30 0 30 0 0 -409z m1400 -51 l0
-460 -307 1 -308 0 65 26 c107 41 209 56 347 50 81 -3 125 -1 132 6 8 8 11
139 11 424 l0 413 30 0 30 0 0 -460z m-659 -550 c-35 -30 -68 -35 -107 -17
-55 27 -41 37 49 37 l82 -1 -24 -19z"/>
</g>
</svg>
